{
  "accessors": [
    {
      "bufferView": 2,
      "componentType": 5126,
      "count": 11411,
      "max": [
        10.043198585510254,
        51.126472473144531,
        9.4166879653930664
      ],
      "min": [
        -9.1357889175415039,
        11.026588439941406,
        -9.181096076965332
      ],
      "type": "VEC3"
    },
    {
      "bufferView": 2,
      "byteOffset": 136932,
      "componentType": 5126,
      "count": 11411,
      "max": [
        0.9999879002571106,
        0.99995040893554688,
        0.99995195865631104
      ],
      "min": [
        -0.99992227554321289,
        -0.99997407197952271,
        -0.9999728798866272
      ],
      "type": "VEC3"
    },
    {
      "bufferView": 3,
      "componentType": 5126,
      "count": 11411,
      "max": [
        0.99998676776885986,
        0.99999964237213135,
        0.99848681688308716,
        1
      ],
      "min": [
        -0.99984234571456909,
        -0.99997061491012573,
        -0.99905335903167725,
        1
      ],
      "type": "VEC4"
    },
    {
      "bufferView": 3,
      "byteOffset": 182576,
      "componentType": 5126,
      "count": 11411,
      "max": [
        0.7137255072593689,
        0.7607843279838562,
        0.70588237047195435,
        1
      ],
      "min": [
        0.0039215688593685627,
        0.14901961386203766,
        0.086274512112140656,
        1
      ],
      "type": "VEC4"
    },
    {
      "bufferView": 1,
      "componentType": 5126,
      "count": 11411,
      "max": [
        0.99951171875,
        0.99895304441452026
      ],
      "min": [
        0.00048829655861482024,
        0.00048829655861482024
      ],
      "type": "VEC2"
    },
    {
      "bufferView": 0,
      "componentType": 5125,
      "count": 66828,
      "max": [
        11410
      ],
      "min": [
        0
      ],
      "type": "SCALAR"
    }
  ],
  "asset": {
    "extras": {
      "author": "omegadarling (https://sketchfab.com/omegadarling)",
      "license": "CC-BY-4.0 (http://creativecommons.org/licenses/by/4.0/)",
      "source": "https://sketchfab.com/models/b83a6e423fa14282a4fbc0a4d0a3fd02",
      "title": "Knit Ice Cream Cone"
    },
    "generator": "Sketchfab-3.22.4",
    "version": "2.0"
  },
  "bufferViews": [
    {
      "buffer": 0,
      "byteLength": 267312,
      "byteOffset": 0,
      "name": "floatBufferViews",
      "target": 34963
    },
    {
      "buffer": 0,
      "byteLength": 91288,
      "byteOffset": 267312,
      "byteStride": 8,
      "name": "floatBufferViews",
      "target": 34962
    },
    {
      "buffer": 0,
      "byteLength": 273864,
      "byteOffset": 358600,
      "byteStride": 12,
      "name": "floatBufferViews",
      "target": 34962
    },
    {
      "buffer": 0,
      "byteLength": 365152,
      "byteOffset": 632464,
      "byteStride": 16,
      "name": "floatBufferViews",
      "target": 34962
    }
  ],
  "buffers": [
    {
      "byteLength": 997616,
      "uri": "scene.bin"
    }
  ],
  "images": [
    {
      "uri": "textures/KIC_RC01_ZB04_normal.png"
    },
    {
      "uri": "textures/KIC_RC01_ZB04_baseColor.png"
    }
  ],
  "materials": [
    {
      "doubleSided": true,
      "name": "KIC_RC01_ZB04",
      "normalTexture": {
        "index": 0,
        "scale": 0.36656188960000002,
        "texCoord": 0
      },
      "pbrMetallicRoughness": {
        "baseColorFactor": [
          1,
          1,
          1,
          1
        ],
        "baseColorTexture": {
          "index": 1,
          "texCoord": 0
        },
        "metallicFactor": 0,
        "roughnessFactor": 0.59999999999999998
      }
    }
  ],
  "meshes": [
    {
      "name": "KIC_RC01_ZB04_KIC_RC01_ZB04_0",
      "primitives": [
        {
          "attributes": {
            "COLOR_0": 3,
            "NORMAL": 1,
            "POSITION": 0,
            "TANGENT": 2,
            "TEXCOORD_0": 4
          },
          "indices": 5,
          "material": 0,
          "mode": 4
        }
      ]
    }
  ],
  "nodes": [
    {
      "children": [
        1
      ],
      "name": "RootNode (gltf orientation matrix)",
      "rotation": [
        -0.70710678118654746,
        -0,
        -0,
        0.70710678118654757
      ]
    },
    {
      "children": [
        2
      ],
      "matrix": [
        -0.21456758677959442,
        -0.9764404296875,
        0.022908704355359077,
        0,
        -0.97572004795074463,
        0.21534663438796997,
        0.039952486753463745,
        0,
        -0.04394453763961792,
        -0.013779972679913044,
        -0.9989389181137085,
        0,
        1.8017556667327881,
        0.77881407737731934,
        62.114448547363281,
        1
      ],
      "name": "RootNode (model correction matrix)"
    },
    {
      "children": [
        3
      ],
      "matrix": [
        1,
        0,
        0,
        0,
        0,
        0,
        1,
        0,
        0,
        -1,
        0,
        0,
        0,
        0,
        0,
        1
      ],
      "name": "KIC_RC01_ZB04.fbx"
    },
    {
      "children": [
        4
      ],
      "name": "RootNode"
    },
    {
      "children": [
        5
      ],
      "name": "KIC_RC01_ZB04"
    },
    {
      "mesh": 0,
      "name": "KIC_RC01_ZB04_KIC_RC01_ZB04_0"
    }
  ],
  "samplers": [
    {
      "magFilter": 9729,
      "minFilter": 9987,
      "wrapS": 10497,
      "wrapT": 10497
    }
  ],
  "scene": 0,
  "scenes": [
    {
      "name": "OSG_Scene",
      "nodes": [
        0
      ]
    }
  ],
  "textures": [
    {
      "sampler": 0,
      "source": 0
    },
    {
      "sampler": 0,
      "source": 1
    }
  ]
}

