<?xml version="1.0" encoding="utf-8"?>
<!-- Generator: Adobe Illustrator 22.0.1, SVG Export Plug-In . SVG Version: 6.00 Build 0)  -->
<svg version="1.1" id="Capa_1" xmlns="http://www.w3.org/2000/svg" xmlns:xlink="http://www.w3.org/1999/xlink" x="0px" y="0px"
	 viewBox="0 0 4000 4000" style="enable-background:new 0 0 4000 4000;" xml:space="preserve">
<style type="text/css">
	.st0{fill:#C1272D;}
</style>
<g>
	<path class="st0" d="M1508.8,3642.4c-9.5,1.4-20.3,2.7-33.1,4.1c-7.4,0.7-14.9,1.4-22.3,1.4
		C1473,3646.4,1491.2,3644.4,1508.8,3642.4z"/>
	<path class="st0" d="M1435.2,3584.3c-26.3-9.5-52.7-19.6-78.3-30.4l0,0c-10.8-4.7-21.6-8.8-31.7-13.5c-8.8-4.1-16.9-7.4-25.7-11.5
		c-106-48.6-205.3-108-298.4-176.2c-47.9-107.4-66.2-204.6-66.2-292.4c0-84.4,16.9-159.3,43.2-225.5
		c38.5-99.3,97.9-178.2,147.2-231.6c24.3-27,46.6-47.3,62.1-60.8c8.1-6.8,14.2-12.2,18.2-14.9c2-1.4,3.4-2.7,4.7-3.4l1.4-0.7l0,0
		l0,0l0,0c2.7-2,5.4-4.1,7.4-6.8c39.8,18.9,80.3,37.8,122.9,56.7c-18.2,20.3-45.2,53.3-72.9,98.6c-23,38.5-46.6,85.7-64.1,141.1
		c-17.6,55.4-29,118.8-29,188.4c0,82.4,16.2,173.5,56.7,272.1c34.4,83,86.4,170.1,160,261.3c5.4,6.8,11.5,14.2,17.6,20.9
		c6.1,7.4,12.2,14.2,18.2,21.6l0,0C1430.5,3579.6,1433.2,3581.6,1435.2,3584.3z"/>
	<path class="st0" d="M874.8,2333.2c-28.4,29-79.7,85.7-132.3,163.4c-37.8,56.7-76.3,124.2-105.3,200.5
		c-25.7,66.8-43.9,140.4-47.9,218.1c-170.8-263.3-270.1-577.3-270.1-914.2c0-21.6,0.7-42.5,1.4-64.1
		C426.5,2030,611.5,2177.2,874.8,2333.2z"/>
	<path class="st0" d="M1130,2473c-29.7,25.7-79,72.2-129,138.4c-39.2,52-77.6,115.5-107.4,191.1c-29.7,75.6-49.3,162-49.3,258.6
		c0,58.1,7.4,119.5,23.6,183.7c-64.8-58.7-124.9-122.9-179.6-191.1c-7.4-35.8-10.8-70.9-10.8-105.3c0-76.3,16.9-150.6,43.2-218.8
		c39.2-102,98.6-191.1,147.9-253.2c25-31.1,47.3-56,63.5-72.9c8.1-8.8,14.2-14.9,18.9-18.9c2-2,3.4-3.4,4.1-4.1
		c21.6,12.2,43.9,24.3,66.2,36.5C1056.4,2435.2,1092.9,2454.1,1130,2473z"/>
	<path class="st0" d="M3023.2,3333.8c-108.7,83.7-228.2,154.6-355.8,210c-226.9-189.1-418.6-395.7-555.7-557
		c-64.8-76.3-117.5-143.1-155.3-192.4c169.5,48.6,350.4,90.5,544.2,122.9c8.8,21.6,43.9,99.3,124.2,185.7
		c45.9,49.3,107.4,101.3,186.4,145.8C2871.3,3283.2,2941.5,3312.9,3023.2,3333.8z"/>
	<path class="st0" d="M1654,583.8c-52,196.5-104.7,463.2-104.7,745.4c0,106.7,7.4,216.1,25.7,324.8
		c-75.6-37.1-147.9-75.6-216.7-114.1c-48.6-173.5-66.2-344.3-66.2-498.3c0-174.9,22.3-328.1,44.6-436.8
		c10.8-54.7,22.3-97.9,30.4-127.6c4.1-14.9,7.4-26.3,10.1-33.8c0.7-2,1.4-4.1,2-5.4c111.4-44.6,228.9-77,350.4-97.2
		C1708.7,398.1,1681,481.2,1654,583.8z"/>
	<path class="st0" d="M2572.9,3581.6c-110.1,39.8-224.8,68.2-344.3,84.4c-253.2-205.3-411.9-455.7-507.7-659
		c-50-106.7-83-199.9-103.3-266c-7.4-25-13.5-45.9-17.6-62.8c68.9,25.7,139.8,50,213.4,73.6c0,0,0,0.7,0.7,0.7
		c0.7,0.7,84.4,122.2,229.6,293C2175.2,3200.1,2356.8,3396.6,2572.9,3581.6z"/>
	<path class="st0" d="M3009.1,656.7c-27.7-2-58.7-4.1-92.5-4.1c-124.9,0-287,20.3-460.5,96.6c-139.1,60.8-285.6,158-424,307.9
		c27-153.3,68.9-297.1,110.7-417.3c35.1-99.9,70.2-183.7,95.9-241.7c10.8-23.6,19.6-43.2,27-58.1
		C2541.8,384.6,2795,496,3009.1,656.7z"/>
	<path class="st0" d="M2105,3678.2c-35.1,2-70.2,3.4-105.3,3.4c-118.8,0-235-12.2-346.4-35.8l0,0c-10.1-2-20.3-4.1-30.4-6.8
		c-11.5-2.7-22.3-5.4-33.8-8.1l0,0c-37.1-9.5-74.3-20.3-110.1-31.7c2-0.7,3.4-0.7,4.7-1.4c1.4-0.7,2.7-1.4,4.7-2c0,0,0,0,0.7,0l0,0
		c0,0,0.7,0,0.7-0.7c1.4-0.7,3.4-1.4,4.7-2.7c2-1.4,3.4-2.7,5.4-4.1c1.4-1.4,2.7-2.7,4.1-4.1c3.4-4.1,6.1-8.8,8.1-12.8
		c6.1-14.9,3.4-33.1-8.1-45.9c-91.8-103.3-151.2-199.9-187.7-287.6c-36.5-87.8-50-166.8-50-237.7c0-60.1,10.1-114.1,25-161.4
		c22.3-70.9,56.7-127.6,85.1-166.1c14.2-18.9,26.3-33.8,35.8-43.2c4.1-4.7,8.1-8.1,10.1-10.8c1.4-1.4,2-2,2.7-2.7l0.7-0.7l0,0l0,0
		c2-2,4.1-4.1,5.4-6.1c24.3,10.1,48.6,20.3,73.6,29.7c-0.7,4.1-0.7,8.8,0.7,13.5c0.7,2.7,33.1,169.5,137.7,391.6
		C1730.9,3238.6,1876.8,3474.3,2105,3678.2z"/>
	<path class="st0" d="M1202.3,1041.6c0,135,12.8,283.6,47.3,435.5c-92.5-54.7-176.9-109.4-252.5-161.4
		c-143.1-97.9-254.5-186.4-330.2-249.8c-14.9-12.8-28.4-24.3-40.5-35.1c164.1-232.9,386.2-421.3,645.5-546.2
		C1244.1,591.9,1202.3,795.1,1202.3,1041.6z"/>
	<path class="st0" d="M1922,1202.9c-5.4,56-8.8,112.8-8.8,169.5c0,103.3,10.1,207.3,33.8,309.2c0,6.8,2,12.8,4.7,18.9
		c11.5,45.2,25.7,89.8,42.5,133c-112.1-41.2-219.4-86.4-320-133c-25.7-122.9-35.8-249.1-35.8-372.7c0-271.4,50.6-531.4,102-722.4
		c25.7-95.9,51.3-174.2,70.2-228.9c6.8-19.6,12.8-36.5,18.2-49.3c56.7-6.1,113.4-8.8,171.5-8.8s116.1,2.7,172.8,8.8
		c-27.7,59.4-70.9,158-114.1,282.2c-56.7,162.7-114.1,368.7-135.7,586.7l0,0C1922.7,1199.6,1922,1201.6,1922,1202.9z"/>
	<path class="st0" d="M3357.5,2991.5c-72.2,98.6-154.6,189.7-246.4,270.1c-103.3-18.9-187-52-255.2-90.5
		c-106-60.1-174.2-133-216.1-191.8c-11.5-16.2-21.6-31.7-29-44.6C2842.3,2969.2,3091.4,2989.5,3357.5,2991.5z"/>
	<path class="st0" d="M3493.2,2772.1c-23,44.6-47.9,87.8-74.9,130.3h-13.5c-1035.7,0-1817.6-282.9-2340.9-565.1
		c-261.3-141.1-458.5-282.2-589.4-387.6c-64.8-52-113.4-95.2-145.8-125.6c16.2-153.9,53.3-302.5,108-440.9
		c112.8,119.5,363.9,363.2,750.8,614.4C1710.7,2338.6,2483.8,2694.4,3493.2,2772.1z"/>
	<path class="st0" d="M3301.4,936.9c-52.7-7.4-116.8-12.8-191.1-12.8c-145.8,0-328.8,22.3-529.3,96.6
		c-182.3,67.5-380.1,178.2-577.3,354.5v-2c0-50.6,2.7-101.3,6.8-151.2c156.6-201.9,324.1-320.7,482.1-390.3
		c160-70.2,309.9-89.1,424.7-89.1c67.5,0,122.9,6.8,160.7,12.8c18.9,3.4,33.8,6.1,43.9,8.8c4.7,1.4,8.8,2,10.8,2.7
		c1.4,0.7,2,0.7,2.7,0.7h0.7l0,0c2.7,0.7,6.1,1.4,8.8,2C3200.1,821.5,3252.8,877.5,3301.4,936.9z"/>
	<path class="st0" d="M3548.5,1347.4c-95.2-23-255.2-51.3-454.4-51.3c-156,0-336.9,17.6-528.7,70.2
		c-174.2,47.9-358.5,124.2-542.2,241c-6.8-37.8-12.2-76.3-14.9-114.8c208-198.5,414.6-317.3,603.6-387.6
		c189.7-70.2,361.2-90.5,498.3-90.5c99.3,0,179.6,10.8,235.6,21.6c13.5,2.7,25,5.4,35.1,7.4
		C3446.6,1137.5,3503.3,1239.4,3548.5,1347.4z"/>
	<path class="st0" d="M3680.9,2001c0,20.3-0.7,41.2-1.4,61.4c-119.5,11.5-236.3,16.9-351.1,16.9c-409.8,0-787.9-69.5-1125.5-174.2
		c-31.7-10.1-63.5-20.3-94.5-30.4c-0.7-4.1-2-8.8-4.1-12.8c-25-52-45.2-106-60.1-161.4c185-122.2,370-200.5,544.9-247.8
		c183.7-50,355.8-66.8,505-66.8c156,0,287,18.2,378.1,37.1c45.9,9.5,81.7,18.2,106,25c3.4,0.7,6.8,2,10.1,2.7
		C3647.8,1622.9,3680.9,1807.9,3680.9,2001z"/>
	<path class="st0" d="M3674.1,2152.9c-16.9,188.4-64.8,368-138.4,532.7c-1009.4-70.9-1778.4-424.7-2299-763.6
		c-265.3-172.8-465.2-341.6-598.9-466.6c-66.8-62.8-116.8-114.8-150.6-150.6c-4.1-4.1-7.4-8.8-11.5-12.2
		c29.7-64.1,63.5-126.3,101.3-185.7c120.9,104,363.9,298.4,704.2,492.9c249.8,142.5,551.6,284.9,896,391.6s731.9,178.2,1151.9,178.2
		C3441.2,2169.1,3556.6,2163.7,3674.1,2152.9z"/>
	<path class="st0" d="M1952.4,1701.2c-2.7-6.1-4.7-12.8-4.7-18.9C1949,1688.4,1950.4,1695.2,1952.4,1701.2z"/>
	<path class="st0" d="M1952.4,1701.2c-2.7-6.1-4.7-12.8-4.7-18.9C1949,1688.4,1950.4,1695.2,1952.4,1701.2z"/>
</g>
</svg>
