<?xml version="1.0" encoding="utf-8"?>
<!-- Generator: Adobe Illustrator 22.0.1, SVG Export Plug-In . SVG Version: 6.00 Build 0)  -->
<svg version="1.1" id="Capa_1" xmlns="http://www.w3.org/2000/svg" xmlns:xlink="http://www.w3.org/1999/xlink" x="0px" y="0px"
	 viewBox="0 0 1994.7 604.7" style="enable-background:new 0 0 1994.7 604.7;" xml:space="preserve">
<g>
	<path d="M313.5,552.4c-1.4,0.2-3,0.4-4.9,0.6c-1.1,0.1-2.2,0.2-3.3,0.2C308.2,553,310.9,552.7,313.5,552.4z"/>
	<path d="M302.6,543.8c-3.9-1.4-7.8-2.9-11.6-4.5c0,0,0,0,0,0c-1.6-0.7-3.2-1.3-4.7-2c-1.3-0.6-2.5-1.1-3.8-1.7
		c-15.7-7.2-30.4-16-44.2-26.1c-7.1-15.9-9.8-30.3-9.8-43.3c0-12.5,2.5-23.6,6.4-33.4c5.7-14.7,14.5-26.4,21.8-34.3
		c3.6-4,6.9-7,9.2-9c1.2-1,2.1-1.8,2.7-2.2c0.3-0.2,0.5-0.4,0.7-0.5l0.2-0.1l0,0h0v0c0.4-0.3,0.8-0.6,1.1-1
		c5.9,2.8,11.9,5.6,18.2,8.4c-2.7,3-6.7,7.9-10.8,14.6c-3.4,5.7-6.9,12.7-9.5,20.9c-2.6,8.2-4.3,17.6-4.3,27.9
		c0,12.2,2.4,25.7,8.4,40.3c5.1,12.3,12.8,25.2,23.7,38.7c0.8,1,1.7,2.1,2.6,3.1c0.9,1.1,1.8,2.1,2.7,3.2h0
		C301.9,543.1,302.3,543.4,302.6,543.8z"/>
	<path d="M219.6,358.5c-4.2,4.3-11.8,12.7-19.6,24.2c-5.6,8.4-11.3,18.4-15.6,29.7c-3.8,9.9-6.5,20.8-7.1,32.3
		c-25.3-39-40-85.5-40-135.4c0-3.2,0.1-6.3,0.2-9.5C153.2,313.6,180.6,335.4,219.6,358.5z"/>
	<path d="M257.4,379.2c-4.4,3.8-11.7,10.7-19.1,20.5c-5.8,7.7-11.5,17.1-15.9,28.3c-4.4,11.2-7.3,24-7.3,38.3
		c0,8.6,1.1,17.7,3.5,27.2c-9.6-8.7-18.5-18.2-26.6-28.3c-1.1-5.3-1.6-10.5-1.6-15.6c0-11.3,2.5-22.3,6.4-32.4
		c5.8-15.1,14.6-28.3,21.9-37.5c3.7-4.6,7-8.3,9.4-10.8c1.2-1.3,2.1-2.2,2.8-2.8c0.3-0.3,0.5-0.5,0.6-0.6c3.2,1.8,6.5,3.6,9.8,5.4
		C246.5,373.6,251.9,376.4,257.4,379.2z"/>
	<path d="M537.8,506.7c-16.1,12.4-33.8,22.9-52.7,31.1c-33.6-28-62-58.6-82.3-82.5c-9.6-11.3-17.4-21.2-23-28.5
		c25.1,7.2,51.9,13.4,80.6,18.2c1.3,3.2,6.5,14.7,18.4,27.5c6.8,7.3,15.9,15,27.6,21.6C515.3,499.2,525.7,503.6,537.8,506.7z"/>
	<path d="M335,99.4c-7.7,29.1-15.5,68.6-15.5,110.4c0,15.8,1.1,32,3.8,48.1c-11.2-5.5-21.9-11.2-32.1-16.9
		c-7.2-25.7-9.8-51-9.8-73.8c0-25.9,3.3-48.6,6.6-64.7c1.6-8.1,3.3-14.5,4.5-18.9c0.6-2.2,1.1-3.9,1.5-5c0.1-0.3,0.2-0.6,0.3-0.8
		c16.5-6.6,33.9-11.4,51.9-14.4C343.1,71.9,339,84.2,335,99.4z"/>
	<path d="M471.1,543.4c-16.3,5.9-33.3,10.1-51,12.5c-37.5-30.4-61-67.5-75.2-97.6c-7.4-15.8-12.3-29.6-15.3-39.4
		c-1.1-3.7-2-6.8-2.6-9.3c10.2,3.8,20.7,7.4,31.6,10.9c0,0,0,0.1,0.1,0.1c0.1,0.1,12.5,18.1,34,43.4
		C412.2,486.9,439.1,516,471.1,543.4z"/>
	<path d="M535.7,110.2c-4.1-0.3-8.7-0.6-13.7-0.6c-18.5,0-42.5,3-68.2,14.3c-20.6,9-42.3,23.4-62.8,45.6c4-22.7,10.2-44,16.4-61.8
		c5.2-14.8,10.4-27.2,14.2-35.8c1.6-3.5,2.9-6.4,4-8.6C466.5,69.9,504,86.4,535.7,110.2z"/>
	<path d="M401.8,557.7c-5.2,0.3-10.4,0.5-15.6,0.5c-17.6,0-34.8-1.8-51.3-5.3h0c-1.5-0.3-3-0.6-4.5-1c-1.7-0.4-3.3-0.8-5-1.2
		c0,0,0,0,0,0c-5.5-1.4-11-3-16.3-4.7c0.3-0.1,0.5-0.1,0.7-0.2c0.2-0.1,0.4-0.2,0.7-0.3c0,0,0,0,0.1,0h0c0,0,0.1,0,0.1-0.1
		c0.2-0.1,0.5-0.2,0.7-0.4c0.3-0.2,0.5-0.4,0.8-0.6c0.2-0.2,0.4-0.4,0.6-0.6c0.5-0.6,0.9-1.3,1.2-1.9c0.9-2.2,0.5-4.9-1.2-6.8
		c-13.6-15.3-22.4-29.6-27.8-42.6c-5.4-13-7.4-24.7-7.4-35.2c0-8.9,1.5-16.9,3.7-23.9c3.3-10.5,8.4-18.9,12.6-24.6
		c2.1-2.8,3.9-5,5.3-6.4c0.6-0.7,1.2-1.2,1.5-1.6c0.2-0.2,0.3-0.3,0.4-0.4l0.1-0.1h0v0c0.3-0.3,0.6-0.6,0.8-0.9
		c3.6,1.5,7.2,3,10.9,4.4c-0.1,0.6-0.1,1.3,0.1,2c0.1,0.4,4.9,25.1,20.4,58C346.4,492.6,368,527.5,401.8,557.7z"/>
	<path d="M268.1,167.2c0,20,1.9,42,7,64.5c-13.7-8.1-26.2-16.2-37.4-23.9c-21.2-14.5-37.7-27.6-48.9-37c-2.2-1.9-4.2-3.6-6-5.2
		c24.3-34.5,57.2-62.4,95.6-80.9C274.3,100.6,268.1,130.7,268.1,167.2z"/>
	<path d="M374.7,191.1c-0.8,8.3-1.3,16.7-1.3,25.1c0,15.3,1.5,30.7,5,45.8c0,1,0.3,1.9,0.7,2.8c1.7,6.7,3.8,13.3,6.3,19.7
		c-16.6-6.1-32.5-12.8-47.4-19.7c-3.8-18.2-5.3-36.9-5.3-55.2c0-40.2,7.5-78.7,15.1-107c3.8-14.2,7.6-25.8,10.4-33.9
		c1-2.9,1.9-5.4,2.7-7.3c8.4-0.9,16.8-1.3,25.4-1.3c8.6,0,17.2,0.4,25.6,1.3c-4.1,8.8-10.5,23.4-16.9,41.8
		c-8.4,24.1-16.9,54.6-20.1,86.9c0,0,0,0,0,0C374.8,190.6,374.7,190.9,374.7,191.1z"/>
	<path d="M587.3,456c-10.7,14.6-22.9,28.1-36.5,40c-15.3-2.8-27.7-7.7-37.8-13.4c-15.7-8.9-25.8-19.7-32-28.4
		c-1.7-2.4-3.2-4.7-4.3-6.6C511,452.7,547.9,455.7,587.3,456z"/>
	<path d="M607.4,423.5c-3.4,6.6-7.1,13-11.1,19.3h-2c-153.4,0-269.2-41.9-346.7-83.7c-38.7-20.9-67.9-41.8-87.3-57.4
		c-9.6-7.7-16.8-14.1-21.6-18.6c2.4-22.8,7.9-44.8,16-65.3c16.7,17.7,53.9,53.8,111.2,91C343.4,359.3,457.9,412,607.4,423.5z"/>
	<path d="M579,151.7c-7.8-1.1-17.3-1.9-28.3-1.9c-21.6,0-48.7,3.3-78.4,14.3c-27,10-56.3,26.4-85.5,52.5v-0.3c0-7.5,0.4-15,1-22.4
		c23.2-29.9,48-47.5,71.4-57.8c23.7-10.4,45.9-13.2,62.9-13.2c10,0,18.2,1,23.8,1.9c2.8,0.5,5,0.9,6.5,1.3c0.7,0.2,1.3,0.3,1.6,0.4
		c0.2,0.1,0.3,0.1,0.4,0.1l0.1,0h0c0.4,0.1,0.9,0.2,1.3,0.3C564,134.6,571.8,142.9,579,151.7z"/>
	<path d="M615.6,212.5c-14.1-3.4-37.8-7.6-67.3-7.6c-23.1,0-49.9,2.6-78.3,10.4c-25.8,7.1-53.1,18.4-80.3,35.7
		c-1-5.6-1.8-11.3-2.2-17c30.8-29.4,61.4-47,89.4-57.4c28.1-10.4,53.5-13.4,73.8-13.4c14.7,0,26.6,1.6,34.9,3.2
		c2,0.4,3.7,0.8,5.2,1.1C600.5,181.4,608.9,196.5,615.6,212.5z"/>
	<path d="M635.2,309.3c0,3-0.1,6.1-0.2,9.1c-17.7,1.7-35,2.5-52,2.5c-60.7,0-116.7-10.3-166.7-25.8c-4.7-1.5-9.4-3-14-4.5
		c-0.1-0.6-0.3-1.3-0.6-1.9c-3.7-7.7-6.7-15.7-8.9-23.9c27.4-18.1,54.8-29.7,80.7-36.7c27.2-7.4,52.7-9.9,74.8-9.9
		c23.1,0,42.5,2.7,56,5.5c6.8,1.4,12.1,2.7,15.7,3.7c0.5,0.1,1,0.3,1.5,0.4C630.3,253.3,635.2,280.7,635.2,309.3z"/>
	<path d="M634.2,331.8c-2.5,27.9-9.6,54.5-20.5,78.9c-149.5-10.5-263.4-62.9-340.5-113.1c-39.3-25.6-68.9-50.6-88.7-69.1
		c-9.9-9.3-17.3-17-22.3-22.3c-0.6-0.6-1.1-1.3-1.7-1.8c4.4-9.5,9.4-18.7,15-27.5c17.9,15.4,53.9,44.2,104.3,73
		c37,21.1,81.7,42.2,132.7,58c51,15.8,108.4,26.4,170.6,26.4C599.7,334.2,616.8,333.4,634.2,331.8z"/>
	<path d="M379.2,264.9c-0.4-0.9-0.7-1.9-0.7-2.8C378.7,263,378.9,264,379.2,264.9z"/>
	<path d="M379.2,264.9c-0.4-0.9-0.7-1.9-0.7-2.8C378.7,263,378.9,264,379.2,264.9z"/>
</g>
<g>
	<path d="M869.2,417.5c-21.2-11.7-37.8-27.8-49.8-48.3s-18-43.8-18-69.8s6-49.3,18-69.8s28.6-36.5,49.8-48
		c21.2-11.5,45.3-17.3,72.3-17.3c24,0,45.4,4.8,64.3,14.5c18.8,9.7,33.4,23.7,43.8,42l-36.5,23.5c-8.3-12.7-18.7-22.2-31-28.5
		c-12.3-6.3-26-9.5-41-9.5c-17.3,0-32.9,3.8-46.8,11.5c-13.8,7.7-24.7,18.6-32.5,32.8c-7.8,14.2-11.8,30.4-11.8,48.8
		c0,18.7,3.9,35.1,11.8,49.3c7.8,14.2,18.7,25.1,32.5,32.8C908,389.2,923.6,393,941,393c15,0,28.7-3.2,41-9.5
		c12.3-6.3,22.7-15.8,31-28.5l36.5,23c-10.3,18.3-24.9,32.4-43.8,42.3c-18.8,9.8-40.3,14.8-64.3,14.8
		C914.5,435,890.4,429.2,869.2,417.5z"/>
	<path d="M1409.5,237.3c-5.9,8.5-10.6,14.2-14.1,18c-3,3.3-8.5,1.3-8.7-3.2c-0.3-7.1-1.5-17.2-4.5-22.8c-4.3-8.1-21.4-13.6-33.4-11
		c-13.9,3-29.6,12.8-39,21.3c-15.9,14.4-24.6,32-24.6,60.6v132h-48v-265h46v44.5c8.3-15.3,20.5-27.3,37-35c14.7-6.9,36.3-9.5,62-0.5
		C1407.3,185,1428.4,207.8,1409.5,237.3z"/>
	<path d="M1628,417.5c-21-11.7-37.4-27.8-49.2-48.3c-11.8-20.5-17.8-43.8-17.8-69.8s5.9-49.3,17.8-69.8c11.8-20.5,28.2-36.5,49.2-48
		s44.7-17.3,71-17.3c26.3,0,49.9,5.8,70.8,17.3c20.8,11.5,37.2,27.5,49,48c11.8,20.5,17.8,43.8,17.8,69.8s-5.9,49.3-17.8,69.8
		c-11.8,20.5-28.2,36.6-49,48.3c-20.8,11.7-44.4,17.5-70.8,17.5C1672.6,435,1649,429.2,1628,417.5z M1744.7,381.3
		c13.5-7.8,24.1-18.8,31.8-33c7.7-14.2,11.5-30.4,11.5-48.8c0-18.3-3.8-34.6-11.5-48.8c-7.7-14.2-18.3-25.1-31.8-32.8
		c-13.5-7.7-28.8-11.5-45.8-11.5s-32.3,3.8-45.8,11.5c-13.5,7.7-24.2,18.6-32,32.8c-7.8,14.2-11.8,30.4-11.8,48.8
		c0,18.3,3.9,34.6,11.8,48.8c7.8,14.2,18.5,25.2,32,33c13.5,7.8,28.8,11.8,45.8,11.8S1731.2,389.1,1744.7,381.3z"/>
</g>
</svg>
